<?xml version="1.0" standalone="no"?>
<!DOCTYPE svg PUBLIC "-//W3C//DTD SVG 20010904//EN"
 "http://www.w3.org/TR/2001/REC-SVG-20010904/DTD/svg10.dtd">
<svg version="1.0" xmlns="http://www.w3.org/2000/svg"
 width="312.000000pt" height="312.000000pt" viewBox="0 0 312.000000 312.000000"
 preserveAspectRatio="xMidYMid meet">
<metadata>
Created by potrace 1.14, written by Peter Selinger 2001-2017
</metadata>
<g transform="translate(0.000000,312.000000) scale(0.100000,-0.100000)"
fill="#000000" stroke="none">
<path d="M957 2883 c-1 -1 -24 -3 -52 -4 -55 -3 -105 -18 -105 -32 0 -4 -4 -6
-9 -2 -20 12 -71 -76 -78 -135 -5 -49 -4 -2306 1 -2337 9 -47 24 -83 36 -83 5
0 9 -6 8 -12 -2 -7 20 -25 49 -39 42 -21 64 -26 115 -25 62 2 147 33 140 51
-2 4 1 11 6 14 5 3 16 20 25 37 14 28 16 94 17 537 0 279 3 513 6 521 5 13 78
16 552 18 509 3 550 4 584 22 119 59 112 267 -11 318 -18 8 -195 12 -567 13
-297 1 -545 5 -552 9 -9 5 -12 103 -12 387 0 208 3 380 8 380 4 1 268 2 587 3
533 2 583 3 617 20 20 9 43 25 51 34 37 44 48 146 22 209 -15 35 -55 83 -55
66 0 -4 -4 -2 -8 5 -5 7 -29 15 -53 18 -39 5 -1318 12 -1322 7z"/>
</g>
</svg>
